<svg viewBox="0 0 98 96" xmlns="http://www.w3.org/2000/svg" role="img" aria-labelledby="title">
  <title id="title">GitHub logo</title>
  <rect width="98" height="96" rx="12" fill="#0d1117" />
  <path
    fill="#ffffff"
    fill-rule="evenodd"
    clip-rule="evenodd"
    d="M49 12C28.55 12 12 28.94 12 49.85c0 16.74 10.6 30.93 25.3 35.94 1.85.35 2.53-.82 2.53-1.82 0-.9-.03-3.27-.05-6.42-10.29 2.29-12.46-5.07-12.46-5.07-1.68-4.37-4.1-5.53-4.1-5.53-3.35-2.34.25-2.29.25-2.29 3.71.27 5.66 3.9 5.66 3.9 3.29 5.77 8.64 4.1 10.75 3.14.33-2.44 1.29-4.1 2.34-5.05-8.21-.95-16.84-4.2-16.84-18.72 0-4.14 1.44-7.52 3.8-10.17-.38-.96-1.65-4.82.36-10.03 0 0 3.1-1.01 10.17 3.88A34.67 34.67 0 0 1 49 30.35c3.14.02 6.3.43 9.25 1.26 7.06-4.89 10.16-3.88 10.16-3.88 2.01 5.21.75 9.07.37 10.03 2.37 2.65 3.8 6.03 3.8 10.17 0 14.56-8.65 17.76-16.89 18.7 1.33 1.17 2.51 3.48 2.51 7.01 0 5.06-.05 9.14-.05 10.38 0 1.01.67 2.19 2.55 1.82C75.41 80.77 86 66.58 86 49.85 86 28.94 69.45 12 49 12Z"
  />
</svg>
